<?xml version="1.0" standalone="no"?>
<!DOCTYPE svg PUBLIC "-//W3C//DTD SVG 20010904//EN"
 "http://www.w3.org/TR/2001/REC-SVG-20010904/DTD/svg10.dtd">
<svg version="1.0" xmlns="http://www.w3.org/2000/svg"
 width="800.000000pt" height="800.000000pt" viewBox="0 0 800.000000 800.000000"
 preserveAspectRatio="xMidYMid meet">
<metadata>
Created by potrace 1.14, written by Peter Selinger 2001-2017
</metadata>
<g transform="translate(0.000000,800.000000) scale(0.100000,-0.100000)"
fill="#000000" stroke="none">
<path d="M3050 5425 c-520 -520 -948 -945 -951 -945 -4 0 -428 421 -943 936
l-936 936 0 -1813 c1 -1038 5 -1842 10 -1879 76 -540 490 -958 1020 -1028 71
-9 5451 -9 5510 0 25 4 54 9 65 12 11 2 42 9 70 16 117 26 282 105 395 188
268 197 443 493 486 822 4 30 8 870 8 1867 1 1777 1 1811 -18 1795 -10 -9
-432 -430 -936 -934 -505 -505 -921 -918 -925 -918 -4 0 -432 425 -952 945
-520 520 -948 945 -951 945 -4 0 -432 -425 -952 -945z m3390 -1540 c296 296
539 533 542 529 2 -5 4 -382 3 -839 -2 -764 -3 -834 -19 -880 -40 -112 -101
-182 -205 -233 l-75 -37 -2686 0 -2685 0 -67 33 c-109 54 -187 147 -218 262
-9 34 -12 245 -12 840 0 437 1 811 1 830 1 34 15 21 540 -504 l540 -540 951
952 952 952 951 -951 951 -950 536 536z"/>
</g>
</svg>
